<svg width="222" height="222" viewBox="0 0 222 222" fill="none" xmlns="http://www.w3.org/2000/svg">
<rect width="222" height="222" fill="white"/>
<path d="M110.56 125.46L177.16 92.16V158.76L110.56 192.06L43.96 158.76V92.16L110.56 125.46Z" fill="#8B7355"/>
<path d="M43.96 92.16L110.56 125.46V192.06L43.96 158.76V92.16Z" fill="#7A6345"/>
<path d="M110.56 125.46L177.16 92.16V158.76L110.56 192.06V125.46Z" fill="#6B5344"/>
<path d="M43.96 92.16L110.56 61.08L177.16 92.16L110.56 125.46L43.96 92.16Z" fill="#A08060"/>
<path d="M43.96 92.16L110.56 61.08L79.48 30L4 65.52L43.96 92.16Z" fill="#C4A77D"/>
<path d="M177.16 92.16L110.56 61.08L141.64 30L217.12 65.52L177.16 92.16Z" fill="#B8956F"/>
</svg>
